<svg width="32" height="43" viewBox="0 0 32 43" fill="none" xmlns="http://www.w3.org/2000/svg">
<path d="M14.933 37.987C11.4849 40.9509 7.10734 42.6109 2.57738 42.6723C2.41791 42.6677 2.26293 42.6211 2.12806 42.5374C1.99319 42.4536 1.8832 42.3357 1.80923 42.1954C-1.42708 36.0952 0.689815 25.4728 7.04502 15.753C13.4002 6.03323 22.3098 -0.204853 29.2266 0.239904C29.3873 0.252811 29.5421 0.304278 29.6778 0.389918C29.8136 0.47556 29.9262 0.592835 30.0062 0.731776C33.216 6.82849 31.1142 17.4394 24.759 27.1592C22.1164 31.2911 18.7938 34.9524 14.933 37.987ZM3.25383 40.8365C9.37618 40.895 17.4663 34.9268 23.1886 26.1605C28.9108 17.3942 31.0824 7.62659 28.5729 2.10561C22.4506 2.04704 14.3605 8.01529 8.63822 16.7816C2.91592 25.5479 0.744324 35.3155 3.25383 40.8365Z" fill="#7D806A"/>
<path d="M14.9707 37.9112C11.6956 40.6868 7.63379 42.3659 3.36733 42.7081C3.21246 42.7066 3.06071 42.6671 2.92546 42.5932C2.79021 42.5192 2.6756 42.413 2.59172 42.284C2.50255 42.1617 2.44593 42.0186 2.42712 41.868C2.40832 41.7174 2.42791 41.5641 2.4841 41.4223C11.1485 19.0466 28.3207 0.74067 28.5431 0.500589C28.6482 0.395714 28.7755 0.315634 28.9155 0.266323C29.0554 0.217013 29.2044 0.199751 29.3513 0.215814C29.5024 0.234518 29.6467 0.288073 29.7728 0.372246C29.8989 0.456419 30.0034 0.568877 30.0779 0.700765C33.2878 6.79748 31.1859 17.4085 24.8307 27.1282C22.1785 31.2504 18.8438 34.8973 14.9707 37.9112ZM4.79546 40.7012C10.7232 39.8464 17.9296 34.2203 23.1886 26.1605C28.7113 17.7584 30.8614 8.52617 28.9148 2.93061C25.2424 6.99938 12.2589 22.3533 4.79546 40.7012Z" fill="#7D806A"/>
<path d="M24.8931 26.2079C24.7319 26.3361 24.5317 26.4051 24.3266 26.4032C19.6931 26.8076 15.1055 27.6602 10.6287 28.9489C10.3839 29.0103 10.1257 28.974 9.90929 28.8477C9.69289 28.7214 9.53553 28.5152 9.47086 28.2731C9.4378 28.1542 9.4291 28.0297 9.4453 27.9069C9.46149 27.7841 9.50224 27.6655 9.56512 27.5582C9.62799 27.451 9.71172 27.3572 9.81133 27.2825C9.91093 27.2077 10.0244 27.1536 10.1449 27.1232C14.7777 25.7915 19.5268 24.9191 24.3227 24.5189C24.5209 24.5166 24.7143 24.5765 24.8755 24.6902C25.0366 24.8038 25.1572 24.9655 25.2203 25.1524C25.2834 25.3392 25.2857 25.5417 25.227 25.7312C25.1683 25.9206 25.0514 26.0874 24.8931 26.2079Z" fill="#7D806A"/>
<path d="M29.3654 14.2647C29.1731 14.4028 28.94 14.4721 28.7045 14.461C25.0927 14.4614 21.5163 15.2436 18.2221 16.7535C18.0039 16.882 17.7442 16.9194 17.5003 16.8573C17.2564 16.7952 17.0481 16.6387 16.9214 16.4223C16.7946 16.206 16.7598 15.9474 16.8245 15.7035C16.8892 15.4596 17.0481 15.2504 17.2663 15.1219C20.9099 13.4194 24.8816 12.549 28.8895 12.5746C29.0131 12.5902 29.1321 12.63 29.2396 12.6919C29.3472 12.7538 29.4413 12.8364 29.5163 12.935C29.5913 13.0336 29.6459 13.1462 29.6769 13.2664C29.7078 13.3866 29.7146 13.5119 29.6967 13.6351C29.6684 13.8781 29.5503 14.1026 29.3654 14.2647Z" fill="#7D806A"/>
</svg>
