<svg width="41" height="39" viewBox="0 0 41 39" fill="none" xmlns="http://www.w3.org/2000/svg">
<path fill-rule="evenodd" clip-rule="evenodd" d="M20.9758 2.53688C20.6704 2.4201 20.3296 2.4201 20.0242 2.53688L4.73112 8.38385L20.5 14.4127L36.2689 8.38385L20.9758 2.53688ZM38.4375 10.1927L21.7812 16.5608V35.9665L38.4375 29.5984V10.1927ZM19.2188 35.9665V16.5608L2.5625 10.1927V29.5984L19.2188 35.9665ZM19.0725 0.262772C19.9889 -0.0875907 21.0111 -0.0875908 21.9275 0.262772L40.1946 7.24679C40.681 7.43277 41 7.88308 41 8.38385V29.5984C41 30.5999 40.3621 31.5005 39.3892 31.8725L20.9758 38.9124C20.6704 39.0292 20.3296 39.0292 20.0242 38.9124L1.61081 31.8725C0.637937 31.5005 0 30.5999 0 29.5984V8.38385C0 7.88308 0.318968 7.43277 0.805406 7.24679L19.0725 0.262772Z" fill="#7D806A"/>
</svg>
