<svg width="35" height="35" viewBox="0 0 35 35" fill="none" xmlns="http://www.w3.org/2000/svg">
<path fill-rule="evenodd" clip-rule="evenodd" d="M6.5625 5.46875C6.5625 2.44844 9.01094 0 12.0312 0C15.0516 0 17.5 2.44844 17.5 5.46875C17.5 2.44844 19.9484 0 22.9688 0C25.9891 0 28.4375 2.44844 28.4375 5.46875L28.4375 5.48093C28.4376 5.63375 28.4378 6.07177 28.3548 6.5625H32.8125C34.0206 6.5625 35 7.54188 35 8.75V13.125C35 14.3331 34.0206 15.3125 32.8125 15.3125V31.7188C32.8125 33.5309 31.3434 35 29.5312 35H5.46875C3.65657 35 2.1875 33.5309 2.1875 31.7188L2.1875 15.3125C0.979379 15.3125 0 14.3331 0 13.125V8.75C0 7.54188 0.979377 6.5625 2.1875 6.5625H6.64524C6.56221 6.07177 6.56242 5.63375 6.5625 5.48093C6.5625 5.47664 6.5625 5.47258 6.5625 5.46875ZM8.89873 6.5625H15.3125V5.46875C15.3125 3.65657 13.8434 2.1875 12.0312 2.1875C10.2191 2.1875 8.75 3.65657 8.75 5.46875C8.75 5.65414 8.75426 6.06705 8.84818 6.41143C8.86489 6.47269 8.88221 6.52283 8.89873 6.5625ZM19.6875 6.5625H26.1013C26.1178 6.52283 26.1351 6.47269 26.1518 6.41143C26.2457 6.06705 26.25 5.65414 26.25 5.46875C26.25 3.65657 24.7809 2.1875 22.9688 2.1875C21.1566 2.1875 19.6875 3.65657 19.6875 5.46875V6.5625ZM2.1875 8.75V13.125H15.3125V8.75H2.1875ZM19.6875 8.75V13.125H32.8125V8.75H19.6875ZM30.625 15.3125H19.6875V32.8125H29.5312C30.1353 32.8125 30.625 32.3228 30.625 31.7188V15.3125ZM15.3125 32.8125V15.3125H4.375V31.7188C4.375 32.3228 4.86469 32.8125 5.46875 32.8125H15.3125Z" fill="#7D806A"/>
</svg>
