<svg width="33" height="39" viewBox="0 0 33 39" fill="none" xmlns="http://www.w3.org/2000/svg">
<path fill-rule="evenodd" clip-rule="evenodd" d="M16.5 2.4375C13.2455 2.4375 10.6071 5.16576 10.6071 8.53125V9.75H22.3929V8.53125C22.3929 5.16576 19.7545 2.4375 16.5 2.4375ZM24.75 9.75V8.53125C24.75 3.81957 21.0564 0 16.5 0C11.9437 0 8.25 3.81957 8.25 8.53125V9.75H0V34.125C0 36.8174 2.11066 39 4.71429 39H28.2857C30.8893 39 33 36.8174 33 34.125V9.75H24.75ZM2.35714 12.1875V34.125C2.35714 35.4712 3.41247 36.5625 4.71429 36.5625H28.2857C29.5875 36.5625 30.6429 35.4712 30.6429 34.125V12.1875H2.35714Z" fill="#7D806A"/>
</svg>
