<svg width="38" height="37" viewBox="0 0 38 37" fill="none" xmlns="http://www.w3.org/2000/svg">
<path d="M0.572324 6.16812L26.7652 9.75157C26.8796 9.76575 26.9847 9.822 27.06 9.9094C27.1353 9.99681 27.1756 10.1091 27.173 10.2246V36.5056C27.173 36.631 27.1232 36.7513 27.0347 36.84C26.9462 36.9287 26.8261 36.9786 26.7009 36.9786H26.6008L0.407828 33.3951C0.293445 33.3809 0.188394 33.3247 0.113061 33.2373C0.0377278 33.1499 -0.00252306 33.0376 0.00012261 32.9221V6.6268C0.00012261 6.50135 0.0498508 6.38104 0.138382 6.29233C0.226913 6.20363 0.346975 6.15379 0.472177 6.15379H0.572324V6.16812ZM26.236 10.6331L0.937115 7.16432V32.4993L26.236 35.9752V10.6331Z" fill="#7D806A"/>
<path d="M37.0364 4.50534L27.1729 10.5255V35.6813L37.0364 29.6969V4.50534ZM26.7008 10.2388L26.4577 9.8375L37.1866 3.30847C37.2698 3.2479 37.3699 3.21528 37.4727 3.2153C37.5343 3.21529 37.5954 3.22757 37.6523 3.25143C37.7092 3.27529 37.7607 3.31025 37.804 3.35427C37.8473 3.39829 37.8814 3.45049 37.9043 3.50784C37.9273 3.56519 37.9386 3.62654 37.9376 3.68831V29.9693C37.9389 30.0507 37.9192 30.1312 37.8803 30.2027C37.8415 30.2743 37.7848 30.3346 37.7159 30.3778L37.4727 29.9764L37.7087 30.3778L26.9798 36.9068C26.8966 36.9674 26.7965 37 26.6937 37C26.5698 36.9981 26.4515 36.9474 26.3645 36.8589C26.2775 36.7704 26.2288 36.6512 26.2288 36.527V10.2317C26.2268 10.1501 26.2462 10.0694 26.2851 9.99772C26.324 9.92602 26.3811 9.86583 26.4505 9.82316L26.7008 10.2388Z" fill="#7D806A"/>
<path d="M2.16025 6.383L26.6008 9.7371L36.1352 3.95343L14.427 0.921832L2.16025 6.383ZM26.6366 10.6831L0.443646 7.09969C0.346612 7.08481 0.256771 7.03953 0.186992 6.97035C0.117212 6.90117 0.071074 6.81163 0.0551935 6.71457C0.039313 6.61751 0.0545056 6.51789 0.0985877 6.43001C0.14267 6.34212 0.213372 6.27048 0.300585 6.22533L14.1481 0.0618082C14.2367 0.0103693 14.3399 -0.00981959 14.4413 0.00447181L37.5586 3.22957C37.6342 3.2361 37.7072 3.26024 37.7717 3.30006C37.8363 3.33988 37.8907 3.39428 37.9306 3.45891C37.963 3.51148 37.9847 3.56999 37.9943 3.63102C38.0039 3.69206 38.0013 3.75441 37.9867 3.81444C37.972 3.87447 37.9456 3.93098 37.909 3.98068C37.8723 4.03038 37.8262 4.07228 37.7732 4.10393L37.53 3.70259L37.7661 4.10393L27.0371 10.633C26.9874 10.67 26.9307 10.6967 26.8705 10.7114C26.8103 10.7262 26.7478 10.7288 26.6866 10.719L26.6366 10.6831Z" fill="#7D806A"/>
<path d="M6.15147 6.94203L14.191 8.04573C14.2516 8.05368 14.3101 8.07352 14.363 8.10413C14.416 8.13474 14.4624 8.1755 14.4996 8.2241C14.5368 8.27269 14.5641 8.32816 14.5799 8.38733C14.5957 8.4465 14.5996 8.5082 14.5916 8.56891L14.0766 20.9963H13.6117H14.0838C14.0764 21.1211 14.0206 21.2382 13.9285 21.3225C13.8363 21.4068 13.715 21.4518 13.5902 21.4478C13.486 21.4427 13.386 21.4051 13.3041 21.3403L9.43455 18.4735L5.61502 20.8816C5.53998 20.9311 5.45226 20.9577 5.36243 20.9583C5.2726 20.9589 5.18454 20.9334 5.10887 20.8848C5.03321 20.8363 4.97319 20.7669 4.93608 20.6849C4.89898 20.6029 4.88636 20.5119 4.89976 20.4229L5.61502 7.37204C5.62241 7.24782 5.67836 7.13152 5.77075 7.04835C5.86313 6.96517 5.9845 6.92182 6.10856 6.9277L6.15147 6.94203ZM13.6403 8.92009L6.48767 7.93823L5.87967 19.6059L9.1699 17.5347C9.25236 17.4757 9.3511 17.444 9.4524 17.444C9.5537 17.444 9.65249 17.4757 9.73495 17.5347L13.1825 20.0789L13.6403 8.92009Z" fill="#7D806A"/>
<path d="M7.51043 7.27894L14.0336 8.09596L24.4693 2.36245L17.803 1.45226L7.51043 7.31477V7.27894ZM14.0694 9.04916L6.02267 8.03863C5.94833 8.03143 5.87686 8.00612 5.81452 7.96489C5.75218 7.92367 5.70087 7.86778 5.66504 7.80212C5.63434 7.74899 5.61444 7.6903 5.60646 7.62943C5.59847 7.56856 5.60255 7.50671 5.6185 7.44743C5.63446 7.38815 5.66195 7.33262 5.6994 7.28402C5.73684 7.23543 5.7835 7.19473 5.8367 7.16427L17.4669 0.542064C17.5631 0.475961 17.6803 0.447877 17.7959 0.463228L25.9785 1.58126C26.0586 1.58447 26.1363 1.60867 26.2041 1.65142C26.2719 1.69418 26.3273 1.75401 26.3648 1.82494C26.3949 1.87893 26.414 1.93839 26.4209 1.99986C26.4279 2.06132 26.4225 2.12356 26.4052 2.18293C26.3879 2.24231 26.359 2.29763 26.3201 2.34568C26.2812 2.39373 26.2332 2.43354 26.1788 2.46279L14.3984 8.97749C14.3056 9.03199 14.1977 9.05464 14.0909 9.04199L14.0694 9.04916Z" fill="#7D806A"/>
</svg>
