<svg width="42" height="40" viewBox="0 0 42 40" fill="none" xmlns="http://www.w3.org/2000/svg">
<path fill-rule="evenodd" clip-rule="evenodd" d="M7.52352 37.9832C7.31929 39.1473 8.46791 40.0585 9.48231 39.5371L21.004 33.6153L32.5257 39.5371C33.5401 40.0585 34.6888 39.1473 34.4845 37.9832L32.3065 25.5683L41.5526 16.7571C42.4167 15.9337 41.9694 14.4281 40.8118 14.2636L27.9533 12.437L22.22 1.0798C21.7036 0.0567332 20.3045 0.0567332 19.788 1.0798L14.0547 12.437L1.19623 14.2636C0.0386329 14.4281 -0.408668 15.9337 0.455432 16.7571L9.70155 25.5683L7.52352 37.9832ZM20.3981 30.7169L10.723 35.6896L12.5454 25.3017C12.6313 24.812 12.4698 24.3106 12.1182 23.9756L4.48776 16.7041L15.1251 15.1929C15.5648 15.1305 15.9488 14.8496 16.1562 14.4387L21.004 4.83557L25.8519 14.4387C26.0593 14.8496 26.4433 15.1305 26.883 15.1929L37.5203 16.7041L29.8898 23.9756C29.5383 24.3106 29.3767 24.812 29.4626 25.3017L31.2851 35.6896L21.61 30.7169C21.2278 30.5204 20.7803 30.5204 20.3981 30.7169Z" fill="#7D806A"/>
</svg>
